<mxfile host="app.diagrams.net" agent="Mozilla/5.0 (Windows NT 10.0; Win64; x64) AppleWebKit/537.36 (KHTML, like Gecko) Chrome/133.0.0.0 Safari/537.36" version="26.0.15">
  <diagram name="第 1 页" id="IceHvFMhuSLMuGwEgAzG">
    <mxGraphModel dx="478" dy="318" grid="1" gridSize="10" guides="1" tooltips="1" connect="1" arrows="1" fold="1" page="1" pageScale="1" pageWidth="827" pageHeight="1169" math="1" shadow="0">
      <root>
        <mxCell id="0" />
        <mxCell id="1" parent="0" />
        <mxCell id="TyKDxq_lsrLQuB99KI5q-3" value="" style="rounded=0;whiteSpace=wrap;html=1;aspect=fixed;" vertex="1" parent="1">
          <mxGeometry x="205" y="126" width="15" height="30" as="geometry" />
        </mxCell>
        <mxCell id="TyKDxq_lsrLQuB99KI5q-4" value="" style="rounded=0;whiteSpace=wrap;html=1;aspect=fixed;" vertex="1" parent="1">
          <mxGeometry x="225" y="126" width="15" height="30" as="geometry" />
        </mxCell>
        <mxCell id="TyKDxq_lsrLQuB99KI5q-5" value="$$\cdots$$" style="rounded=0;whiteSpace=wrap;html=1;aspect=fixed;fillColor=none;strokeColor=none;" vertex="1" parent="1">
          <mxGeometry x="245" y="126" width="15" height="30" as="geometry" />
        </mxCell>
        <mxCell id="TyKDxq_lsrLQuB99KI5q-6" value="" style="rounded=0;whiteSpace=wrap;html=1;aspect=fixed;" vertex="1" parent="1">
          <mxGeometry x="265" y="126" width="15" height="30" as="geometry" />
        </mxCell>
        <mxCell id="TyKDxq_lsrLQuB99KI5q-7" value="" style="rounded=1;whiteSpace=wrap;html=1;fillColor=none;dashed=1;" vertex="1" parent="1">
          <mxGeometry x="200" y="120" width="85" height="40" as="geometry" />
        </mxCell>
        <mxCell id="TyKDxq_lsrLQuB99KI5q-8" value="模态1" style="rounded=0;whiteSpace=wrap;html=1;" vertex="1" parent="1">
          <mxGeometry x="60" y="120" width="85" height="40" as="geometry" />
        </mxCell>
        <mxCell id="TyKDxq_lsrLQuB99KI5q-9" value="" style="rounded=0;whiteSpace=wrap;html=1;aspect=fixed;" vertex="1" parent="1">
          <mxGeometry x="205" y="186" width="15" height="30" as="geometry" />
        </mxCell>
        <mxCell id="TyKDxq_lsrLQuB99KI5q-10" value="" style="rounded=0;whiteSpace=wrap;html=1;aspect=fixed;" vertex="1" parent="1">
          <mxGeometry x="225" y="186" width="15" height="30" as="geometry" />
        </mxCell>
        <mxCell id="TyKDxq_lsrLQuB99KI5q-11" value="$$\cdots$$" style="rounded=0;whiteSpace=wrap;html=1;aspect=fixed;fillColor=none;strokeColor=none;" vertex="1" parent="1">
          <mxGeometry x="245" y="186" width="15" height="30" as="geometry" />
        </mxCell>
        <mxCell id="TyKDxq_lsrLQuB99KI5q-12" value="" style="rounded=0;whiteSpace=wrap;html=1;aspect=fixed;" vertex="1" parent="1">
          <mxGeometry x="265" y="186" width="15" height="30" as="geometry" />
        </mxCell>
        <mxCell id="TyKDxq_lsrLQuB99KI5q-13" value="" style="rounded=1;whiteSpace=wrap;html=1;fillColor=none;dashed=1;" vertex="1" parent="1">
          <mxGeometry x="200" y="180" width="85" height="40" as="geometry" />
        </mxCell>
        <mxCell id="TyKDxq_lsrLQuB99KI5q-14" value="模态2" style="rounded=0;whiteSpace=wrap;html=1;" vertex="1" parent="1">
          <mxGeometry x="60" y="180" width="85" height="40" as="geometry" />
        </mxCell>
        <mxCell id="TyKDxq_lsrLQuB99KI5q-15" value="" style="rounded=0;whiteSpace=wrap;html=1;aspect=fixed;" vertex="1" parent="1">
          <mxGeometry x="205" y="276" width="15" height="30" as="geometry" />
        </mxCell>
        <mxCell id="TyKDxq_lsrLQuB99KI5q-16" value="" style="rounded=0;whiteSpace=wrap;html=1;aspect=fixed;" vertex="1" parent="1">
          <mxGeometry x="225" y="276" width="15" height="30" as="geometry" />
        </mxCell>
        <mxCell id="TyKDxq_lsrLQuB99KI5q-17" value="$$\cdots$$" style="rounded=0;whiteSpace=wrap;html=1;aspect=fixed;fillColor=none;strokeColor=none;" vertex="1" parent="1">
          <mxGeometry x="245" y="276" width="15" height="30" as="geometry" />
        </mxCell>
        <mxCell id="TyKDxq_lsrLQuB99KI5q-18" value="" style="rounded=0;whiteSpace=wrap;html=1;aspect=fixed;" vertex="1" parent="1">
          <mxGeometry x="265" y="276" width="15" height="30" as="geometry" />
        </mxCell>
        <mxCell id="TyKDxq_lsrLQuB99KI5q-19" value="" style="rounded=1;whiteSpace=wrap;html=1;fillColor=none;dashed=1;" vertex="1" parent="1">
          <mxGeometry x="200" y="270" width="85" height="40" as="geometry" />
        </mxCell>
        <mxCell id="TyKDxq_lsrLQuB99KI5q-20" value="模态2" style="rounded=0;whiteSpace=wrap;html=1;" vertex="1" parent="1">
          <mxGeometry x="60" y="270" width="85" height="40" as="geometry" />
        </mxCell>
        <mxCell id="TyKDxq_lsrLQuB99KI5q-21" value="$$\cdots$$" style="text;html=1;align=center;verticalAlign=middle;whiteSpace=wrap;rounded=0;" vertex="1" parent="1">
          <mxGeometry x="73" y="230" width="60" height="30" as="geometry" />
        </mxCell>
      </root>
    </mxGraphModel>
  </diagram>
</mxfile>
